<svg width="25" height="27" viewBox="0 0 25 27" fill="none" xmlns="http://www.w3.org/2000/svg">
<path d="M4.75 1L1 6V23.5C1 24.163 1.25998 24.7989 1.72998 25.2678C2.19998 25.7366 2.84 26 3.5 26H21C21.66 26 22.3 25.7366 22.77 25.2678C23.24 24.7989 23.5 24.163 23.5 23.5V6L19.75 1H4.75Z" stroke="white" stroke-width="2" stroke-linecap="round" stroke-linejoin="round"/>
<path d="M1 10H23.5" stroke="white" stroke-width="2" stroke-linecap="round" stroke-linejoin="round"/>
<path d="M17.25 11C17.25 12.3261 16.72 13.5979 15.79 14.5355C14.85 15.4732 13.58 16 12.25 16C10.92 16 9.64996 15.4732 8.70996 14.5355C7.77996 13.5979 7.25 12.3261 7.25 11" stroke="white" stroke-width="2" stroke-linecap="round" stroke-linejoin="round"/>
</svg>
